# xmcd CD database file
#
# Track frame offsets:
#	150
#	10443
#	20424
#	32325
#	41870
#	51912
#	63959
#	78496
#	88913
#	100558
#	114601
#	127080
#
# Disc length: 1842 seconds
#
# Revision: 1
# Processed by: cddbd v1.5.2PL0 Copyright (c) Steve Scherf et al.
# Submitted via: CDex 1.51
#
DISCID=9a07300c
DTITLE=Françoise Hardy - En Anglais
DYEAR=1968
DGENRE=Easy Listening
TTITLE0=Loving You
TTITLE1=Hang On To A Dream
TTITLE2=Will You Love Tomorrow
TTITLE3=Lonesome Town
TTITLE4=Who'll Be The Next In Line?
TTITLE5=Never Learn To Cry
TTITLE6=There But For Fortune
TTITLE7=That'll Be The Day
TTITLE8=The Way Of Love
TTITLE9=Tiny Goddess
TTITLE10=Let It Be Me
TTITLE11=Empty Sunday
EXTD=YEAR: 1968
EXTT0=
EXTT1=
EXTT2=
EXTT3=
EXTT4=
EXTT5=
EXTT6=
EXTT7=
EXTT8=
EXTT9=
EXTT10=
EXTT11=
PLAYORDER=
